<svg width="24" height="25" viewBox="0 0 24 25" fill="none" xmlns="http://www.w3.org/2000/svg">
<path d="M22 12.1028C22.0004 10.1916 21.4532 8.32038 20.4231 6.71062C19.393 5.10085 17.9232 3.81997 16.1877 3.01965C14.4522 2.21933 12.5237 1.93308 10.6305 2.19481C8.73739 2.45653 6.9589 3.25527 5.50564 4.49643C4.05237 5.7376 2.98521 7.36921 2.43049 9.19808C1.87578 11.027 1.85676 12.9765 2.37568 14.8158C2.8946 16.6552 3.92973 18.3073 5.35849 19.5766C6.78726 20.8459 8.54983 21.6792 10.4375 21.9778V14.9928H7.89875V12.1028H10.4375V9.89902C10.3828 9.38458 10.442 8.86441 10.6108 8.37538C10.7796 7.88636 11.0539 7.44044 11.4142 7.06925C11.7745 6.69805 12.2121 6.41065 12.6959 6.22743C13.1797 6.04421 13.6979 5.96964 14.2137 6.00902C14.9638 6.01887 15.7121 6.08405 16.4525 6.20402V8.66777H15.1925C14.9779 8.6397 14.7597 8.66026 14.554 8.72791C14.3484 8.79557 14.1607 8.90859 14.0046 9.05863C13.8486 9.20866 13.7283 9.39186 13.6526 9.59466C13.577 9.79747 13.5479 10.0147 13.5675 10.2303V12.1053H16.3412L15.8975 14.9953H13.5625V21.984C15.9153 21.6118 18.058 20.412 19.6048 18.6005C21.1516 16.789 22.001 14.4848 22 12.1028Z" fill="#7A7D85"/>
</svg>
