<svg width="24" height="25" viewBox="0 0 24 25" fill="none" xmlns="http://www.w3.org/2000/svg">
<path d="M22 5.97559C21.25 6.35059 20.5 6.47559 19.625 6.60059C20.5 6.10059 21.125 5.35059 21.375 4.35059C20.625 4.85059 19.75 5.10059 18.75 5.35059C18 4.60059 16.875 4.10059 15.75 4.10059C13.625 4.10059 11.75 5.97559 11.75 8.22559C11.75 8.60059 11.75 8.85059 11.875 9.10059C8.5 8.97559 5.375 7.35059 3.375 4.85059C3 5.47559 2.875 6.10059 2.875 6.97559C2.875 8.35059 3.625 9.60059 4.75 10.3506C4.125 10.3506 3.5 10.1006 2.875 9.85059C2.875 11.8506 4.25 13.4756 6.125 13.8506C5.75 13.9756 5.375 13.9756 5 13.9756C4.75 13.9756 4.5 13.9756 4.25 13.8506C4.75 15.4756 6.25 16.7256 8.125 16.7256C6.75 17.8506 5 18.4756 3 18.4756C2.625 18.4756 2.375 18.4756 2 18.4756C3.875 19.6006 6 20.3506 8.25 20.3506C15.75 20.3506 19.875 14.1006 19.875 8.72559C19.875 8.60059 19.875 8.35059 19.875 8.22559C20.75 7.60059 21.5 6.85059 22 5.97559Z" fill="#7A7D85"/>
</svg>
